<svg width="24" height="24" viewBox="0 0 24 24" xmlns="http://www.w3.org/2000/svg">
  <title>
    instagram-logo
  </title>
  <g fill="#4A4A4A" fill-rule="evenodd">
    <path d="M17.28 0H6.587C2.956 0 0 2.955 0 6.587V17.28c0 3.633 2.955 6.588 6.586 6.588H17.28c3.633 0 6.588-2.955 6.588-6.587V6.588C23.868 2.955 20.913 0 17.28 0zm4.47 17.28c0 2.465-2.005 4.47-4.47 4.47H6.587c-2.464 0-4.468-2.005-4.468-4.47V6.588c0-2.465 2.004-4.47 4.468-4.47H17.28c2.465 0 4.47 2.005 4.47 4.47V17.28z"/>
    <path d="M11.934 5.784c-3.39 0-6.15 2.76-6.15 6.15 0 3.39 2.76 6.15 6.15 6.15 3.39 0 6.15-2.76 6.15-6.15 0-3.39-2.76-6.15-6.15-6.15zm0 10.182c-2.224 0-4.033-1.81-4.033-4.032 0-2.224 1.81-4.032 4.034-4.032 2.223 0 4.032 1.808 4.032 4.032 0 2.223-1.81 4.032-4.032 4.032zM18.342 3.988c-.408 0-.81.166-1.097.455-.29.288-.456.69-.456 1.098 0 .41.165.81.455 1.1.288.288.69.454 1.097.454.41 0 .81-.166 1.098-.454.29-.29.455-.69.455-1.1 0-.408-.165-.81-.455-1.097-.288-.29-.69-.455-1.098-.455z"/>
  </g>
</svg>
