<svg width="30" height="24" viewBox="0 0 30 24" xmlns="http://www.w3.org/2000/svg">
  <title>
    twitter-logo
  </title>
  <path d="M29.673 2.856c-1.092.48-2.264.807-3.495.953 1.257-.75 2.22-1.937 2.675-3.346-1.18.693-2.48 1.196-3.868 1.468-1.11-1.177-2.69-1.91-4.442-1.91-3.362 0-6.088 2.71-6.088 6.048 0 .474.054.936.158 1.38C9.555 7.195 5.07 4.786 2.067 1.126c-.524.892-.823 1.932-.823 3.04 0 2.1 1.076 3.953 2.707 5.036-.996-.033-1.934-.306-2.756-.76v.076c0 2.93 2.1 5.376 4.882 5.932-.51.137-1.047.212-1.604.212-.393 0-.773-.04-1.146-.112.775 2.405 3.023 4.154 5.685 4.202-2.08 1.622-4.706 2.586-7.558 2.586-.49 0-.975-.03-1.452-.083 2.694 1.72 5.893 2.722 9.33 2.722 11.198 0 17.32-9.22 17.32-17.215l-.022-.783c1.196-.848 2.23-1.913 3.045-3.126z" fill="#4A4A4A" fill-rule="evenodd"/>
</svg>
